RBDS020runT45_grf
version=1
nRows=27
nColumns=19
inDegrees=no
endheader
time	ground_force_r_vx	ground_force_r_vy	ground_force_r_vz	ground_force_r_px	ground_force_r_py	ground_force_r_pz	ground_force_r_mx	ground_force_r_my	ground_force_r_mz	ground_force_l_vx	ground_force_l_vy	ground_force_l_vz	ground_force_l_px	ground_force_l_py	ground_force_l_pz	ground_force_l_mx	ground_force_l_my	ground_force_l_mz
     14.99900000	      0.00000000	      0.00000000	      0.00000000	      0.00000000	      0.00000000	      0.00000000	      0.00000000	      0.00000000	      0.00000000	   -161.73700768	    913.83318299	     -8.11720537	      2.41321520	      0.00000000	      0.96047527	      0.00000000	      0.54513648	     -0.00000000
     15.00000000	      0.00000000	      0.00000000	      0.00000000	      0.00000000	      0.00000000	      0.00000000	      0.00000000	      0.00000000	      0.00000000	   -164.85241157	    943.17026866	     -7.49361455	      2.41260482	      0.00000000	      0.96022917	      0.00000000	      0.94929086	     -0.00000000
     15.00100000	      0.00000000	      0.00000000	      0.00000000	      0.00000000	      0.00000000	      0.00000000	      0.00000000	      0.00000000	      0.00000000	   -168.01674546	    970.09394484	     -6.66679168	      2.41183021	      0.00000000	      0.95996520	      0.00000000	      1.32559478	     -0.00000000
     15.00200000	      0.00000000	      0.00000000	      0.00000000	      0.00000000	      0.00000000	      0.00000000	      0.00000000	      0.00000000	      0.00000000	   -171.18107935	    997.01762101	     -5.83996882	      2.41105560	      0.00000000	      0.95970122	      0.00000000	      1.70189869	     -0.00000000
     15.00300000	      0.00000000	      0.00000000	      0.00000000	      0.00000000	      0.00000000	      0.00000000	      0.00000000	      0.00000000	      0.00000000	   -174.34541325	   1023.94129719	     -5.01314595	      2.41028100	      0.00000000	      0.95943724	      0.00000000	      2.07820261	     -0.00000000
     15.00400000	      0.00000000	      0.00000000	      0.00000000	      0.00000000	      0.00000000	      0.00000000	      0.00000000	      0.00000000	      0.00000000	   -177.49813971	   1049.19329974	     -4.04758139	      2.40938302	      0.00000000	      0.95916155	      0.00000000	      2.43595971	     -0.00000000
     15.00500000	      0.00000000	      0.00000000	      0.00000000	      0.00000000	      0.00000000	      0.00000000	      0.00000000	      0.00000000	      0.00000000	   -180.64506245	   1073.60946547	     -3.01264597	      2.40842336	      0.00000000	      0.95888002	      0.00000000	      2.78444339	     -0.00000000
     15.00600000	      0.00000000	      0.00000000	      0.00000000	      0.00000000	      0.00000000	      0.00000000	      0.00000000	      0.00000000	      0.00000000	   -183.79198520	   1098.02563120	     -1.97771055	      2.40746370	      0.00000000	      0.95859848	      0.00000000	      3.13292708	     -0.00000000
     15.00700000	      0.00000000	      0.00000000	      0.00000000	      0.00000000	      0.00000000	      0.00000000	      0.00000000	      0.00000000	      0.00000000	   -186.90613852	   1121.59918922	     -0.87429244	      2.40643640	      0.00000000	      0.95831147	      0.00000000	      3.47240733	     -0.00000000
     15.00800000	      0.00000000	      0.00000000	      0.00000000	      0.00000000	      0.00000000	      0.00000000	      0.00000000	      0.00000000	      0.00000000	   -189.95475300	   1143.48753183	      0.36609106	      2.40527382	      0.00000000	      0.95801352	      0.00000000	      3.79388072	     -0.00000000
     15.00900000	      0.00000000	      0.00000000	      0.00000000	      0.00000000	      0.00000000	      0.00000000	      0.00000000	      0.00000000	      0.00000000	   -193.00336748	   1165.37587443	      1.60647456	      2.40411124	      0.00000000	      0.95771556	      0.00000000	      4.11535411	     -0.00000000
     15.01000000	      0.00000000	      0.00000000	      0.00000000	      0.00000000	      0.00000000	      0.00000000	      0.00000000	      0.00000000	      0.00000000	   -196.05198196	   1187.26421703	      2.84685805	      2.40294865	      0.00000000	      0.95741761	      0.00000000	      4.43682749	     -0.00000000
     15.01100000	      0.00000000	      0.00000000	      0.00000000	      0.00000000	      0.00000000	      0.00000000	      0.00000000	      0.00000000	      0.00000000	   -198.91019977	   1206.67065935	      4.28204378	      2.40156874	      0.00000000	      0.95710516	      0.00000000	      4.73273298	     -0.00000000
     15.01200000	      0.00000000	      0.00000000	      0.00000000	      0.00000000	      0.00000000	      0.00000000	      0.00000000	      0.00000000	      0.00000000	   -201.76841758	   1226.07710168	      5.71722951	      2.40018883	      0.00000000	      0.95679271	      0.00000000	      5.02863846	     -0.00000000
     15.01300000	      0.00000000	      0.00000000	      0.00000000	      0.00000000	      0.00000000	      0.00000000	      0.00000000	      0.00000000	      0.00000000	   -204.62663539	   1245.48354400	      7.15241524	      2.39880893	      0.00000000	      0.95648026	      0.00000000	      5.32454394	     -0.00000000
     15.01400000	      0.00000000	      0.00000000	      0.00000000	      0.00000000	      0.00000000	      0.00000000	      0.00000000	      0.00000000	      0.00000000	   -207.29177446	   1263.30331830	      8.70495685	      2.39727711	      0.00000000	      0.95615987	      0.00000000	      5.60465789	     -0.00000000
     15.01500000	      0.00000000	      0.00000000	      0.00000000	      0.00000000	      0.00000000	      0.00000000	      0.00000000	      0.00000000	      0.00000000	   -209.86037416	   1280.32975858	     10.31617641	      2.39566935	      0.00000000	      0.95583551	      0.00000000	      5.87687607	     -0.00000000
     15.01600000	      0.00000000	      0.00000000	      0.00000000	      0.00000000	      0.00000000	      0.00000000	      0.00000000	      0.00000000	      0.00000000	   -212.42897386	   1297.35619886	     11.92739597	      2.39406158	      0.00000000	      0.95551115	      0.00000000	      6.14909425	     -0.00000000
     15.01700000	      0.00000000	      0.00000000	      0.00000000	      0.00000000	      0.00000000	      0.00000000	      0.00000000	      0.00000000	      0.00000000	   -214.86708209	   1313.63790634	     13.58841010	      2.39237573	      0.00000000	      0.95518387	      0.00000000	      6.41411870	     -0.00000000
     15.01800000	      0.00000000	      0.00000000	      0.00000000	      0.00000000	      0.00000000	      0.00000000	      0.00000000	      0.00000000	      0.00000000	   -217.04420735	   1328.43014821	     15.34901335	      2.39053371	      0.00000000	      0.95485075	      0.00000000	      6.66475570	     -0.00000000
     15.01900000	      0.00000000	      0.00000000	      0.00000000	      0.00000000	      0.00000000	      0.00000000	      0.00000000	      0.00000000	      0.00000000	   -219.22133262	   1343.22239008	     17.10961660	      2.38869168	      0.00000000	      0.95451764	      0.00000000	      6.91539270	     -0.00000000
     15.02000000	      0.00000000	      0.00000000	      0.00000000	      0.00000000	      0.00000000	      0.00000000	      0.00000000	      0.00000000	      0.00000000	   -221.39845789	   1358.01463196	     18.87021985	      2.38684966	      0.00000000	      0.95418452	      0.00000000	      7.16602969	     -0.00000000
     15.02100000	      0.00000000	      0.00000000	      0.00000000	      0.00000000	      0.00000000	      0.00000000	      0.00000000	      0.00000000	      0.00000000	   -223.08426837	   1370.74943288	     20.74635481	      2.38477123	      0.00000000	      0.95384620	      0.00000000	      7.39722043	     -0.00000000
     15.02200000	      0.00000000	      0.00000000	      0.00000000	      0.00000000	      0.00000000	      0.00000000	      0.00000000	      0.00000000	      0.00000000	   -224.77007884	   1383.48423380	     22.62248978	      2.38269280	      0.00000000	      0.95350789	      0.00000000	      7.62841116	     -0.00000000
     15.02300000	      0.00000000	      0.00000000	      0.00000000	      0.00000000	      0.00000000	      0.00000000	      0.00000000	      0.00000000	      0.00000000	   -226.45588932	   1396.21903472	     24.49862475	      2.38061438	      0.00000000	      0.95316958	      0.00000000	      7.85960190	     -0.00000000
     15.02400000	      0.00000000	      0.00000000	      0.00000000	      0.00000000	      0.00000000	      0.00000000	      0.00000000	      0.00000000	      0.00000000	   -227.75194794	   1407.71204127	     26.42515642	      2.37837973	      0.00000000	      0.95283035	     -0.00000000	      8.07916663	      0.00000000
     15.02500000	      0.00000000	      0.00000000	      0.00000000	      0.00000000	      0.00000000	      0.00000000	      0.00000000	      0.00000000	      0.00000000	   -228.85313062	   1418.58415065	     28.37688643	      2.37606698	      0.00000000	      0.95249066	     -0.00000000	      8.29291837	      0.00000000
